# xmcd
#
# Track frame offsets: 
#        150
#        10404
#        26691
#        39659
#        51259
#        70074
#        82290
#        92991
#        107095
#        118504
#        130926
#        147074
#        159676
#        172401
#        185800
#        200865
#        247460
#        274381
#        296875
#        312885
#        324880
#        340050
#
# Disc length: 4752 seconds
#
# Revision: 3
# Processed by: cddbd v1.5.2PL0 Copyright (c) Steve Scherf et al.
# Submitted via: ExactAudioCopy v1.0b1
#
DISCID=65128e16
DTITLE=Nina Simone - The very best of Nina Simone
DYEAR=2007
DGENRE=Jazz
TTITLE0=Ain't got no life
TTITLE1=My baby just cares for me
TTITLE2=Feeling good
TTITLE3=I put a spell on you
TTITLE4=I loves you porgy
TTITLE5=Don't let me be misunderstood
TTITLE6=The look of love
TTITLE7=I wish I knew how it would feel to be free
TTITLE8=I want a little sugar in my bowl
TTITLE9=Do I move you
TTITLE10=Do what you gotta do
TTITLE11=To be yound, gifted and black
TTITLE12=Since I fell for you
TTITLE13=Nobody's fault but mine
TTITLE14=I think it's going to rain today
TTITLE15=Sinnerman
TTITLE16=Times they are a changin
TTITLE17=Mr Bojangles
TTITLE18=Here comes the sun
TTITLE19=To love somebody
TTITLE20=Ain't got no, I got life (Nina Simone V Groovefinder remix)
TTITLE21=Ne me quitte pas
EXTD=YEAR: 2007
EXTT0=
EXTT1=
EXTT2=
EXTT3=
EXTT4=
EXTT5=
EXTT6=
EXTT7=
EXTT8=
EXTT9=
EXTT10=
EXTT11=
EXTT12=
EXTT13=
EXTT14=
EXTT15=
EXTT16=
EXTT17=
EXTT18=
EXTT19=
EXTT20=
EXTT21=
PLAYORDER=
